<?xml version="1.0" encoding="utf-8"?>
<!-- Generator: Adobe Illustrator 19.1.0, SVG Export Plug-In . SVG Version: 6.00 Build 0) style="enable-background:new 0 0 360 360;" xml:space="preserve" -->
<svg version="1.1" id="Layer_1" xmlns="http://www.w3.org/2000/svg" xmlns:xlink="http://www.w3.org/1999/xlink" x="0px" y="0px"
	 viewBox="145 130 65 65"  >
<style type="text/css">
	.st0{fill:#989898;}
	.st1{fill:#BDBDBD;}
</style>
<g>
	<path class="st0" d="M187.4,157.1c-0.2-0.4-0.5-0.7-0.8-1c-0.5-0.5-1.1-1-1.6-1.5c-2.9-2.5-6.3-3.8-10-4c-1.4-0.1-2.9,0-4.5,0.3
		c-2.2,0.4-3.8,1.8-4.5,3.9c-0.5,1.5-1,3-1.3,4.5c0.1,0.1,0.3,0.3,0.4,0.5c0.1,0.1,1.4,2.3,7.1,3.1c0.8,0.1,1.4,0.9,1.3,1.7
		c-0.1,0.8-0.8,1.3-1.5,1.3c-0.1,0-0.1,0-0.2,0c-3.9-0.6-6.2-1.7-7.6-2.8c-0.4,3-0.6,6-0.7,8.9c0.3,0.6,1.8,2.5,6.6,3.7
		c0.8,0.2,1.3,1,1.1,1.9c-0.2,0.7-0.8,1.1-1.5,1.1c-0.1,0-0.3,0-0.4,0c-2.7-0.7-4.5-1.6-5.8-2.5c0.1,3.5,0.3,7,0.7,10.4
		c0.2,1.9,0.8,3.9,1.4,5.8c0.4,1.2,1.1,1.3,2.1,0.5c1-0.8,2-1.6,2.9-2.6c5.4-5.9,9.8-12.6,13.5-19.6c1.6-3,3-6,3.7-9.3
		C188.1,160,188.2,158.5,187.4,157.1z"/>
	<path class="st1" d="M192.7,142.3c-0.6-0.5-1.3-0.8-2.1-0.9c0.6-0.5,1-1,1.3-1.7c0.9-2.6-1.6-5.6-5.5-6.8c-3.9-1.2-7.8,0-8.7,2.6
		c-0.3,0.8-0.2,1.6,0.1,2.4c-0.7-0.8-1.6-1.2-2.7-1.1c-1.3,0.1-4.7,1.5-2.1,6.9c0.3,0.6,0.6,1.1,0.9,1.6c6.3,0,8.1,1.9,8.1,1.9
		c-4.7-1.5-8.1-0.8-8.1-0.8l-0.1-0.2l-1.3,2.8c5.2-0.5,9.7,0.9,13.7,4.2l1.2-2.6c3.9-1.2,6.9-3.8,7-5.1
		C194.3,144.3,193.9,143.2,192.7,142.3z"/>
</g>
</svg>
