<?xml version="1.0" encoding="utf-8"?>
<!-- Generator: Adobe Illustrator 19.1.0, SVG Export Plug-In . SVG Version: 6.00 Build 0)  -->
<svg version="1.1" id="Layer_1" xmlns="http://www.w3.org/2000/svg" xmlns:xlink="http://www.w3.org/1999/xlink" x="0px" y="0px"
	 viewBox="0 0 100 100" style="enable-background:new 0 0 100 100;" xml:space="preserve">
<style type="text/css">
	.st0{fill:#F6921E;}
	.st1{fill:#8BC53F;}
</style>
<g>
	<path class="st0" d="M63.9,40.7c-0.4-0.6-0.8-1.2-1.2-1.7c-0.8-0.9-1.7-1.7-2.6-2.4c-4.8-4.1-10.2-6.2-16.2-6.5
		c-2.3-0.1-4.8,0.1-7.3,0.5c-3.7,0.7-6.1,2.9-7.3,6.4c-0.8,2.4-1.6,4.9-2.1,7.4c0.2,0.2,0.4,0.5,0.6,0.8c0.1,0.2,2.3,3.8,11.5,5.1
		c1.4,0.2,2.3,1.5,2.1,2.8c-0.2,1.2-1.2,2.1-2.4,2.1c-0.1,0-0.2,0-0.4,0c-6.3-0.9-10.1-2.8-12.4-4.6c-0.6,4.9-1,9.7-1.1,14.6
		c0.6,1,2.9,4.1,10.7,6.1c1.3,0.3,2.1,1.7,1.8,3c-0.3,1.1-1.3,1.9-2.4,1.9c-0.2,0-0.4,0-0.6-0.1c-4.3-1.1-7.4-2.6-9.5-4.1
		c0.1,5.7,0.5,11.3,1.2,17c0.4,3.2,1.3,6.3,2.2,9.4c0.6,2,1.8,2.2,3.4,0.8c1.7-1.3,3.3-2.7,4.7-4.2c8.8-9.7,15.9-20.5,22-32
		c2.6-4.8,4.8-9.7,6-15.1C65,45.4,65.3,43,63.9,40.7z"/>
	<path class="st1" d="M72.5,16.5c-1-0.7-2.1-1.2-3.3-1.5c1-0.8,1.7-1.7,2.1-2.8c1.4-4.2-2.6-9.1-9-11c-6.4-1.9-12.7,0-14.2,4.2
		c-0.4,1.3-0.3,2.6,0.1,3.9c-1.2-1.4-2.7-2-4.4-1.9c-2.2,0.2-7.6,2.4-3.5,11.3c0.4,0.9,0.9,1.8,1.4,2.6c10.3,0.1,13.2,3.1,13.2,3.1
		C47.3,22,41.7,23,41.7,23l-0.1-0.3l-2.2,4.6c8.4-0.8,15.9,1.5,22.3,6.8l2-4.2C70,28,74.9,23.8,75,21.7C75.2,19.7,74.5,18,72.5,16.5
		z"/>
</g>
</svg>
