<svg id="Layer_1" data-name="Layer 1" xmlns="http://www.w3.org/2000/svg" viewBox="0 0 35 35"><defs><style>.cls-1{fill:#1a171b;}</style></defs><title>Artboard 1</title><path class="cls-1" d="M33.79,10.21c-1-2.38-3.31-2.12-5.43-2.12H8c-1.59,0-4.14-.42-5.49.63-2,1.58-1.38,5-1.38,7.29v9.25c0,2.89,2.29,3.55,4.66,3.55H9V26.5H5.81c-.74,0-1.92.23-2.31-.7a9,9,0,0,1,0-2.91V12.72c0-2.3,1.12-2.31,3.08-2.31H30.6c1.59,0,1.12,2.59,1.12,3.61V25.39c-.47,1.84-4.44,1.12-5.92,1.11v2.31h2c2.49,0,5.75.37,6.2-3,0,0,0-.05,0-.08a1.09,1.09,0,0,0,0-.23V13A7.41,7.41,0,0,0,33.79,10.21Z"/><path class="cls-1" d="M25.8,31.59H9l1.15,1.16V18.45L9,19.61H25.8l-1.16-1.15V32.74a1.16,1.16,0,0,0,2.31,0V18.45a1.17,1.17,0,0,0-1.16-1.16H9a1.17,1.17,0,0,0-1.16,1.16V32.74A1.17,1.17,0,0,0,9,33.9H25.8A1.16,1.16,0,0,0,25.8,31.59Z"/><path class="cls-1" d="M25.8,2.36H9A1.17,1.17,0,0,0,7.89,3.52V9.25A1.17,1.17,0,0,0,9,10.4H25.8A1.17,1.17,0,0,0,27,9.25V3.52a1.16,1.16,0,0,0-2.31,0V9.25L25.8,8.09H9L10.2,9.25V3.52L9,4.67H25.8A1.16,1.16,0,0,0,25.8,2.36Z"/><circle class="cls-1" cx="27.82" cy="13.28" r="0.87"/><path class="cls-1" d="M29.84,13.28a2.07,2.07,0,0,0-2-2,2,2,0,1,0,2,2,1.16,1.16,0,0,0-1.15-1.16,1.17,1.17,0,0,0-1.16,1.16c0-.15,0-.16,0,0a.35.35,0,0,1,.12-.2c-.09.09-.08.08,0,0l.11,0c-.13,0-.12,0,0,0a.29.29,0,1,1-.29.29,1.17,1.17,0,0,0,1.16,1.15A1.16,1.16,0,0,0,29.84,13.28Z"/></svg>